Coordinates
version=1
nRows=17
nColumns=34
inDegrees=yes

Units are S.I. units (second, meters, Newtons, ...)
If the header above contains a line with 'inDegrees', this indicates whether rotational values are in degrees (yes) or radians (no).

endheader
time	pelvis_tilt	pelvis_list	pelvis_rotation	pelvis_tx	pelvis_ty	pelvis_tz	hip_flexion_r	hip_adduction_r	hip_rotation_r	knee_angle_r	ankle_angle_r	subtalar_angle_r	mtp_angle_r	hip_flexion_l	hip_adduction_l	hip_rotation_l	knee_angle_l	ankle_angle_l	subtalar_angle_l	mtp_angle_l	lumbar_extension	lumbar_bending	lumbar_rotation	arm_flex_r	arm_add_r	arm_rot_r	elbow_flex_r	pro_sup_r	arm_flex_l	arm_add_l	arm_rot_l	elbow_flex_l	pro_sup_l
      5.20000000	     -8.45739176	      2.43367428	     -2.28622992	      0.75421488	      0.83691595	     -0.08302701	      6.16557649	      0.81572130	    -11.09212683	     11.07517701	      9.48509880	     -9.85708368	      0.00000000	      7.32164359	      0.59379129	     -9.57823086	     14.32476782	      6.69311641	     -7.44330419	      0.00000000	      6.41704728	     -1.39338459	      5.85426808	     12.58956551	     -9.82866678	     42.30272576	     78.45883807	     74.71760715	   -158.21662101	   -170.63036352	   -139.50859894	     94.38416738	     75.20691690
      5.21666670	     -9.06837087	      2.47333664	     -2.46917172	      0.75103627	      0.83571697	     -0.08242275	      5.71230609	      1.09753071	    -12.54925018	      8.71568579	      9.35255765	     -6.27126300	      0.00000000	      6.98189190	      0.78215215	     -9.54102083	     12.01131988	      5.88449775	     -7.18396829	      0.00000000	      7.22264546	     -1.49238608	      5.85691074	     14.62498213	     -9.94654338	     44.90439902	     79.40392511	     72.87578226	   -156.54305735	   -170.74769554	   -138.96609904	     96.50604000	     68.47731830
      5.23333330	     -9.52759945	      2.61166393	     -2.51761640	      0.74470683	      0.83933467	     -0.08278462	      5.33907332	      1.24410835	    -13.24102825	      6.64589375	      8.00039940	     -5.33786103	      0.00000000	      6.63325981	      1.13606574	     -9.64481364	      9.82749700	      4.93802566	     -6.58420055	      0.00000000	      7.45344429	     -1.68367543	      6.29878979	     16.02239607	    -10.70947720	     46.26289643	     81.24633744	     72.98783283	   -154.56539423	   -170.74529723	   -138.21624875	     98.57888272	     68.15072971
      5.25000000	     -9.93252445	      2.55265019	     -2.61011261	      0.74333952	      0.83709458	     -0.08088405	      4.93549871	      1.64417257	    -13.94647704	      4.78897210	      7.46112828	     -3.82915899	      0.00000000	      6.12098211	      1.24354939	     -9.84951896	      7.86797828	      4.48821395	     -5.92014085	      0.00000000	      7.67190367	     -1.67666864	      6.75921884	     17.42356236	    -11.76040732	     47.99654589	     83.13312553	     73.26152102	   -152.98410010	   -170.67250490	   -137.63345388	    100.36336637	     67.79987760
      5.26666670	    -10.32272623	      2.37427150	     -2.51388713	      0.73993586	      0.83963868	     -0.08144026	      4.66001211	      2.06793316	    -14.58462372	      3.27545847	      7.26496844	     -2.31787737	      0.00000000	      5.78021594	      1.24122536	     -9.67972084	      6.08955051	      4.33816386	     -4.99688623	      0.00000000	      7.82934603	     -1.53565053	      6.83492218	     18.62830181	    -12.93501034	     49.81312222	     84.56817637	     73.68676335	   -151.63570628	   -170.91961322	   -137.16624909	    101.05189744	     67.44218418
      5.28333330	    -10.59686501	      2.22045024	     -2.43361168	      0.73426947	      0.83365661	     -0.08293929	      4.48624245	      2.42240114	    -14.92630174	      2.01553856	      7.08989809	     -1.32091994	      0.00000000	      5.52672628	      1.29794963	     -9.62754513	      4.65226466	      4.32362725	     -4.47657538	      0.00000000	      7.70261651	     -1.35992796	      6.84448022	     19.89565814	    -14.00335452	     51.12020201	     85.94705942	     74.20505388	   -150.31263118	   -170.96348963	   -136.88409256	    102.17948767	     67.17116509
      5.30000000	    -10.78187312	      2.06563176	     -2.42483269	      0.73248001	      0.82852975	     -0.08038220	      4.24814480	      2.83484802	    -14.87676401	      1.01546842	      7.24647424	     -0.75797793	      0.00000000	      5.16463163	      1.25726424	     -9.38769396	      3.46200608	      4.85136287	     -4.11262335	      0.00000000	      7.65200293	     -1.19969886	      6.94225430	     20.97977582	    -14.87220653	     52.08292162	     86.94505013	     74.69611375	   -149.41947304	   -170.95141074	   -136.76506174	    102.96467997	     67.00604272
      5.31666670	    -11.07904798	      1.92686041	     -2.51444352	      0.72743280	      0.82410965	     -0.08121054	      4.57704648	      3.11109557	    -14.80121423	      0.57236797	      7.46690632	     -0.74748902	      0.00000000	      5.17153616	      1.21661151	     -9.14802146	      2.52382911	      5.30027726	     -4.08580673	      0.00000000	      7.70800047	     -0.99756273	      7.01653674	     21.68841905	    -15.07094666	     51.96300054	     87.10993561	     74.76275041	   -148.66979237	   -170.95212107	   -137.08027236	    103.15504048	     66.98010802
      5.33333330	    -10.92977583	      1.69171325	     -2.67456335	      0.72329525	      0.82429932	     -0.08021630	      4.47477787	      3.43165415	    -14.45285114	      0.28502535	      7.87264234	     -0.66790202	      0.00000000	      4.86995044	      1.03414281	     -8.77305360	      1.94898242	      6.13631767	     -4.05481393	      0.00000000	      6.89233467	     -0.61447366	      7.19249739	     22.51332726	    -15.82167659	     53.17365413	     87.75369057	     75.47782485	   -148.28263757	   -170.98651848	   -137.33542163	    103.63647855	     66.85787554
      5.35000000	    -11.09456135	      1.67935020	     -2.66960615	      0.72332974	      0.82376968	     -0.07736164	      4.67677228	      3.58291128	    -14.41199375	      0.13345430	      7.89905238	     -0.64707314	      0.00000000	      5.05020624	      1.00490671	     -8.68380264	      1.67911806	      6.16581182	     -4.01253962	      0.00000000	      6.48748848	     -0.63924180	      7.26821658	     22.52568642	    -15.83646314	     53.20172306	     87.65958733	     75.50020653	   -148.29207926	   -170.90066042	   -137.36697522	    103.57697223	     66.85134997
      5.36666670	    -11.10791804	      1.51336412	     -2.66613240	      0.72607716	      0.82662923	     -0.07831274	      4.59671963	      3.85034298	    -14.16871254	      0.02372841	      7.79978416	     -0.63279340	      0.00000000	      4.90369508	      0.80225540	     -8.34860757	      1.43833015	      5.94928193	     -3.66262193	      0.00000000	      6.31400084	     -0.15267472	      6.48469818	     23.36404939	    -14.82989760	     54.94088893	     84.06349968	     78.35369513	   -149.32363663	   -170.49526472	   -138.14159934	    102.84179890	     66.58721055
      5.38333330	    -10.98971640	      1.47108842	     -2.80283354	      0.72715544	      0.82551685	     -0.07705108	      4.48038086	      3.95485910	    -13.83729135	      0.06161987	      7.56440206	     -0.40912635	      0.00000000	      4.54981822	      0.73521060	     -8.46665602	      1.14072719	      5.72641593	     -3.74888624	      0.00000000	      5.77862152	     -0.02072067	      6.54744636	     22.36828277	    -14.13094512	     54.59857683	     81.65574992	     78.88254352	   -150.25142972	   -170.71984358	   -138.51620670	    101.80857748	     66.53745429
      5.40000000	    -11.05198352	      1.38999274	     -2.80044687	      0.72990308	      0.82353296	     -0.07471568	      4.36568538	      4.13959190	    -13.75399056	      0.00000000	      7.40039794	     -0.49647459	      0.00000000	      4.34081037	      0.56756378	     -8.33904008	      0.96422392	      5.70542168	     -3.58301988	      0.00000000	      5.80008242	      0.08089896	      6.35844969	     20.98324266	    -13.10445184	     53.88068573	     78.42280491	     79.32634658	   -151.58004412	   -170.96098294	   -138.78600844	    100.19865939	     66.49446774
      5.41666670	    -11.12335024	      1.35003666	     -2.88330650	      0.72950234	      0.81891507	     -0.07259786	      4.31678904	      4.34013714	    -13.49703527	      0.00000000	      7.49222130	     -0.79635478	      0.00000000	      4.20033803	      0.39916029	     -8.42745940	      0.94042944	      5.85058909	     -3.69418200	      0.00000000	      5.86978208	      0.10349430	      6.32889278	     19.51487659	    -11.79927010	     52.69624097	     75.07067559	     79.69625116	   -153.20990377	   -170.96111560	   -138.99778667	     98.89888705	     66.47925086
      5.43333330	    -11.25252086	      1.40597367	     -2.92516355	      0.73189802	      0.82000460	     -0.07222390	      4.30592851	      4.39273694	    -13.56758884	      0.00000000	      7.26181818	     -1.08653343	      0.00000000	      4.03654440	      0.37528421	     -8.44921429	      0.69076536	      5.78599992	     -3.61258503	      0.00000000	      6.09867721	      0.10907688	      6.24972466	     17.60540208	    -10.40777822	     51.38973607	     70.92665379	     80.05699680	   -155.18576066	   -171.26623291	   -139.45132543	     96.35828977	     66.44269719
      5.45000000	    -11.40737184	      1.46461220	     -3.08123527	      0.73124087	      0.81766433	     -0.07186997	      4.36064838	      4.43744320	    -13.31351147	      0.00000000	      7.38492311	     -1.35238952	      0.00000000	      4.01247060	      0.35134587	     -8.57399467	      0.57934146	      5.90291983	     -3.73212815	      0.00000000	      6.32644882	      0.05472035	      6.39091481	     15.93640963	     -9.14477579	     49.65754155	     66.56113844	     80.41082765	   -157.27168874	   -171.61573749	   -139.99800730	     93.77736490	     66.43631746
      5.46666670	    -11.47195109	      1.51574894	     -3.21641036	      0.73129491	      0.81528479	     -0.07279114	      4.33529157	      4.41284316	    -13.36947034	      0.00000000	      7.43320029	     -1.59684159	      0.00000000	      3.63714187	      0.42193391	     -8.48080029	      0.00000000	      6.17268418	     -3.82166149	      0.00000000	      6.33355591	      0.06259275	      6.33290139	     14.29972076	     -8.86818207	     48.82283975	     64.21902515	     80.50725503	   -159.54677696	   -171.62643350	   -140.18715245	     91.84847488	     66.41104205
